<?xml version="1.0" encoding="utf-8"?><!-- Uploaded to: SVG Repo, www.svgrepo.com, Generator: SVG Repo Mixer Tools -->
<svg fill="#000000" width="800px" height="800px" viewBox="0 0 24 24" id="twitch" data-name="Flat Line" xmlns="http://www.w3.org/2000/svg" class="icon flat-line"><path id="secondary" d="M4,3H20a1,1,0,0,1,1,1v8l-5,5H10L6,21V17H4a1,1,0,0,1-1-1V4A1,1,0,0,1,4,3Z" style="fill: rgb(44, 169, 188); stroke-width: 2;"></path><path id="primary" d="M9,8v4m6-4v4M3,4V16a1,1,0,0,0,1,1H6v4l4-4h6l5-5V4a1,1,0,0,0-1-1H4A1,1,0,0,0,3,4Z" style="fill: none; stroke: rgb(0, 0, 0); stroke-linecap: round; stroke-linejoin: round; stroke-width: 2;"></path></svg>