<!DOCTYPE svg PUBLIC "-//W3C//DTD SVG 1.1//EN" "http://www.w3.org/Graphics/SVG/1.1/DTD/svg11.dtd">
<!-- Uploaded to: SVG Repo, www.svgrepo.com, Transformed by: SVG Repo Mixer Tools -->
<svg width="800px" height="800px" viewBox="0 0 24 24" version="1.1" xml:space="preserve" xmlns="http://www.w3.org/2000/svg" xmlns:xlink="http://www.w3.org/1999/xlink" fill="#000000">
<g id="SVGRepo_bgCarrier" stroke-width="0"/>
<g id="SVGRepo_tracerCarrier" stroke-linecap="round" stroke-linejoin="round"/>
<g id="SVGRepo_iconCarrier"> <style type="text/css"> .st0{opacity:0.2;fill:none;stroke:#ffffff;stroke-width:5.000000e-02;stroke-miterlimit:10;} </style> <g id="Layer_Grid"/> <g id="Layer_2"> <path d="M18,14h-0.2H16c0-2.1,0.8-4.1,2.3-5.6c0.1-0.1,0.4-0.3,0.7-0.6c0.2-0.2,0.5-0.4,0.7-0.6C19.9,7.1,20,7,20,6.9 c0,0,0-0.1,0-0.1c0-0.1,0.1-0.1,0.1-0.2c0-0.1,0-0.1,0-0.2c0-0.1,0-0.1,0-0.2c0-0.1,0-0.1-0.1-0.2C20,6,20,5.9,20,5.8c0,0,0,0,0,0 c0,0,0,0,0,0c0,0,0,0,0,0C18.1,3.4,15.4,2,12.5,2h-1C9,2,6.6,3,4.8,5C3,6.8,2,9.3,2,12c0,1.1,0.2,2.3,0.5,3.3c1.3,4,4.9,6.7,9,6.7 h6.2c0.3,0,0.6,0,0.9-0.1c0.8-0.2,1.5-0.6,2.1-1.2c0,0,0,0,0,0l0,0c1.1-1.1,1.3-2.8,0.7-4.2C20.8,14.9,19.5,14,18,14z M14,14h-1.3 c-1.2,0-2.1-1-2.1-2.3l0-0.1c0.1-1.9,1.1-3.5,2.7-4.2c1.1-0.5,2.3-0.5,3.3-0.2C15,9.1,14,11.5,14,14z M19.3,19.2 C19.3,19.3,19.3,19.3,19.3,19.2c-0.3,0.4-0.7,0.6-1.1,0.7C18,20,17.8,20,17.7,20h-6.2c-3.2,0-6-2.1-7.1-5.3C4.1,13.8,4,12.9,4,12 c0-2.1,0.8-4.2,2.2-5.7C7.6,4.8,9.5,4,11.5,4h1c1.3,0,2.6,0.4,3.7,1.1c-1.2-0.2-2.4,0-3.7,0.5c-2.3,1-3.8,3.3-3.9,6v0.2 c0,2.3,1.8,4.3,4.1,4.3h2.3h2.8H18c0.9,0,1.4,0.6,1.7,1.2C19.9,17.7,19.9,18.6,19.3,19.2z"/> </g> </g>
</svg>